<svg width="28" height="28" viewBox="0 0 28 28" fill="none" xmlns="http://www.w3.org/2000/svg">
<g clip-path="url(#clip0_2_43)">
<path d="M9.74123 20.7465C9.75808 21.149 10.0893 21.4667 10.4921 21.4667H17.508C17.9108 21.4667 18.242 21.149 18.2588 20.7465L18.7599 10.1697H9.2402L9.74123 20.7465ZM15.5871 12.7968C15.5871 12.6282 15.7238 12.4916 15.8924 12.4916H16.3806C16.5491 12.4916 16.6859 12.6282 16.6859 12.7968V18.8396C16.6859 19.0081 16.5492 19.1448 16.3806 19.1448H15.8924C15.7238 19.1448 15.5871 19.0082 15.5871 18.8396V12.7968ZM13.4507 12.7968C13.4507 12.6282 13.5874 12.4916 13.7559 12.4916H14.2442C14.4127 12.4916 14.5494 12.6282 14.5494 12.7968V18.8396C14.5494 19.0081 14.4128 19.1448 14.2442 19.1448H13.7559C13.5874 19.1448 13.4507 19.0082 13.4507 18.8396V12.7968ZM11.3142 12.7968C11.3142 12.6282 11.4509 12.4916 11.6194 12.4916H12.1077C12.2762 12.4916 12.4129 12.6282 12.4129 12.7968V18.8396C12.4129 19.0081 12.2763 19.1448 12.1077 19.1448H11.6194C11.4509 19.1448 11.3142 19.0082 11.3142 18.8396V12.7968Z" fill="black"/>
<path d="M19.0935 7.30262H15.8568V6.69071C15.8568 6.60381 15.7864 6.53333 15.6994 6.53333H12.3006C12.2137 6.53333 12.1432 6.60381 12.1432 6.69071V7.30258H8.90654C8.64606 7.30258 8.43494 7.51374 8.43494 7.77421V9.2558H19.5651V7.77425C19.5651 7.51377 19.3539 7.30262 19.0935 7.30262Z" fill="black"/>
</g>
<rect x="1" y="1" width="26" height="26" rx="7" stroke="#161616" stroke-width="2"/>
<defs>
<clipPath id="clip0_2_43">
<rect width="14.9333" height="14.9333" fill="white" transform="translate(6.53333 6.53333)"/>
</clipPath>
</defs>
</svg>
