<svg width="16" height="16" viewBox="0 0 16 16" fill="none" xmlns="http://www.w3.org/2000/svg">
<g clip-path="url(#clip0_2_37)">
<path d="M3.74123 14.7465C3.75808 15.149 4.0893 15.4667 4.4921 15.4667H11.508C11.9108 15.4667 12.242 15.149 12.2588 14.7465L12.7599 4.16968H3.2402L3.74123 14.7465ZM9.58712 6.79677C9.58712 6.62824 9.72377 6.49155 9.89238 6.49155H10.3806C10.5491 6.49155 10.6859 6.6282 10.6859 6.79677V12.8396C10.6859 13.0081 10.5492 13.1448 10.3806 13.1448H9.89238C9.72384 13.1448 9.58712 13.0082 9.58712 12.8396V6.79677ZM7.4507 6.79677C7.4507 6.62824 7.58736 6.49155 7.75592 6.49155H8.24416C8.41265 6.49155 8.54938 6.6282 8.54938 6.79677V12.8396C8.54938 13.0081 8.41276 13.1448 8.24416 13.1448H7.75592C7.58739 13.1448 7.4507 13.0082 7.4507 12.8396V6.79677ZM5.31421 6.79677C5.31421 6.62824 5.45087 6.49155 5.61944 6.49155H6.10771C6.27624 6.49155 6.41293 6.6282 6.41293 6.79677V12.8396C6.41293 13.0081 6.27627 13.1448 6.10771 13.1448H5.61944C5.4509 13.1448 5.31421 13.0082 5.31421 12.8396V6.79677Z" fill="black"/>
<path d="M13.0935 1.30262H9.8568V0.690707C9.8568 0.603809 9.78635 0.533325 9.69942 0.533325H6.30058C6.21368 0.533325 6.14324 0.603809 6.14324 0.690707V1.30258H2.90654C2.64606 1.30258 2.43494 1.51374 2.43494 1.77421V3.2558H13.5651V1.77425C13.5651 1.51377 13.3539 1.30262 13.0935 1.30262Z" fill="black"/>
</g>
<defs>
<clipPath id="clip0_2_37">
<rect width="14.9333" height="14.9333" fill="white" transform="translate(0.533325 0.533325)"/>
</clipPath>
</defs>
</svg>
